<svg version="1.2" xmlns="http://www.w3.org/2000/svg" viewBox="0 0 158 87" width="158" height="87"><style>.a{fill:#00c4cc}.b{fill:#0096ff}.c{fill:#5ce1e6}.d{fill:#ff914d}.e{fill:#ffd700}</style><path fill-rule="evenodd" class="a" d="m12.9 53.8q-1.9-0.7-3-2.1c-0.8-0.8-1.3-1.9-1.5-3-0.4-1.1-0.4-2.3-0.3-3.6 0-1.3 0.3-2.5 0.7-3.7q0.6-1.8 1.7-3.3c0.7-1 1.5-1.8 2.4-2.5q1.4-1 3-1.2-1.2 3.1-0.5 5c0.4 1.4 1.3 2 2.6 2.1q1.2 0.1 2.6-0.7 1.5-0.7 3.3-2.6 1.1-1.1 2.2-2.4c0.7-0.9 1.5-1.8 2.1-2.7q0.5-0.6 1-1.2c0.2-0.4 0.5-0.8 0.8-1.1l1.3-1.8q-1.9-0.9-3.6-1.6c-1.1-0.4-2.1-0.6-3-0.7q-0.7 0-1.3 0.2c-0.4 0.2-0.7 0.3-0.9 0.6q-0.4 0.5-0.4 1.2c0 0.5 0.1 1.1 0.4 1.8-0.7 0.2-1.3 0.2-1.7 0q-0.7-0.2-1.1-0.8c-0.5-0.7-0.6-1.6-0.2-2.6 0.3-0.8 0.8-1.6 1.6-2.3 0.8-0.6 1.9-1.1 3.3-1.3 0.7-0.1 1.3 0 1.9 0.2q1 0.3 2.1 0.7 1 0.6 2 1.3c0.7 0.5 1.5 0.9 2.2 1.4l0.4-0.5c0.2-0.2 0.3-0.3 0.5-0.5 1-1.3 2.2-2.6 3.5-3.9q1.9-2 3.9-3.8c1.4-1.2 2.7-2.3 4.2-3.3 1.4-1 2.9-1.9 4.4-2.7q-1.7 0.3-3.5 0.2c-1.1-0.1-2.2-0.2-3.3-0.3-1.1-0.1-2.1-0.2-3-0.2q-1.4 0-2.4 0.3c-0.5 0.3-1 0.6-1.5 1.1q-0.7 0.8-0.9 1.9c-0.2 0.8-0.3 1.7-0.1 2.6q0.3 1.3 1.5 2.8-2.1 0.7-3.7 0.3-1.6-0.4-2.5-1.4c-0.7-0.7-1.1-1.5-1.3-2.5-0.2-0.9-0.1-1.9 0.2-2.8q0.6-1.4 1.9-2.6c0.9-0.8 2.2-1.4 3.7-1.8 0.7-0.1 1.4-0.2 2.1-0.3 0.6 0 1.3 0 2 0.1 0.7 0.1 1.2 0.1 1.8 0.2q0.8 0.2 1.4 0.3 2.1 0.6 4.1 0.9c1.4 0.3 2.8 0.3 4.1 0.2 0.2 0 0.7-0.1 1.3-0.2q0.7-0.2 1.4-0.3 0.8-0.2 1.5-0.3c0.4 0 0.7 0 0.9 0.1l0.1 0.2c0.3 0.2 0.6 0.5 0.7 0.9q0.2 0.6 0.1 1.9-0.8-0.3-1.8 0.4-1 0.7-2.1 2.1c-0.8 0.9-1.6 2-2.5 3.3q-1.2 1.9-2.3 4-1.2 2.2-2.2 4.2-1.1 2.2-1.8 3.8 0.3 0 0.5-0.1 1.6-0.4 3.1-1.9c-0.2 1.1-0.7 2-1.5 2.8-0.8 0.7-1.8 1.1-2.9 1.1-0.1 0.2-0.1 0.3-0.2 0.5l-0.1 0.4q-0.1 0.2-0.1 0.3c-0.1 0.1-0.1 0.2-0.2 0.3q-0.4 1.5-0.7 3c-0.2 1.1-0.4 2.1-0.4 2.9q0 2.6 1.2 4.1 1.2 1.4 3.9 1.8-1.6 2.2-3.8 3.5c-1.4 0.8-2.9 1.2-4.3 1.3q-1.3 0.1-2.3-0.3-1.1-0.4-1.9-1.3-0.8-0.8-1.1-2.1-0.3-1.3 0-3.2c0.3-1.7 0.9-3.6 1.9-5.8q0.7-1.5 1.6-3.2c0.5-1.1 1.1-2.2 1.8-3.3-0.6-0.2-1.2-0.4-1.8-0.8l-1.9-0.9c-0.6 1.1-1.2 2.3-1.9 3.4q-0.9 1.8-1.7 3.6-0.9 1.9-1.8 3.8-0.9 1.8-1.9 3.8-1.1 1.9-2.1 3.5-1 1.5-2 2.7-1.1 1.3-2.3 2c-0.9 0.5-1.9 0.8-3 0.8-1.8 0.2-3.4 0-4.6-0.4zm29.4-28q1.7-2.5 3.4-4.8c1.1-1.4 2.2-2.8 3.2-4.1q1.5-1.8 2.7-3.2-1.8 0.9-3.5 2c-1.2 0.7-2.3 1.5-3.4 2.3-1.1 0.9-2.1 1.8-3 2.6q-1.4 1.4-2.5 2.7-1.1 1.4-2.1 2.8-1 1.5-1.9 3c0.6 0.4 1.2 0.8 1.8 1.1q0.9 0.5 1.8 0.8h0.1q1.6-2.7 3.4-5.2z"/><path fill-rule="evenodd" class="a" d="m46.3 40.5c1.9-3.4 3.9-6.8 5.8-10.2 2-3.3 3.9-6.6 5.8-9.7q2.8-4.6 5.4-8.7 0.7-1.3 1.8-2c0.7-0.5 1.3-0.9 2.1-1.1q1-0.2 1.9-0.1c0.6 0.1 1.1 0.3 1.6 0.6 0.6 0.5 1 1.1 1.2 1.7 0.1 0.7 0.1 1.5-0.1 2.2q-0.4 1.3-1.1 2.6-0.9 1.3-1.9 2.6-1.3 1.6-2.7 3-1.5 1.5-2.9 2.6-0.7 0.7-1.4 1.2-0.7 0.6-1.3 1c-0.8 0.7-1.5 1.4-2 1.8l-2.8 5c0.7-0.8 1.5-1.7 2.3-2.7 0.8-0.9 1.7-1.8 2.5-2.6q1.2-1.1 2.4-1.8c0.8-0.4 1.5-0.5 2.2-0.3 0.7 0.2 1.2 0.6 1.4 1.2 0.3 0.5 0.4 1.1 0.3 1.8-0.1 0.8-0.3 1.6-0.6 2.5-0.3 0.8-0.7 1.6-1.1 2.4-0.1 0.4-0.3 0.8-0.5 1.2q-0.3 0.5-0.6 1-0.6 1-0.9 1.8-0.3 0.7-0.6 1.5-0.4 0.9-0.4 1.5-0.1 0.6 0.1 1c0.1 0.3 0.3 0.4 0.7 0.3q0.5 0 1.1-0.3 0.5-0.3 0.9-0.8c0.3-0.4 0.7-0.7 1-1.1 0.1-0.2 0.2-0.4 0.3-0.6q0.1-0.3 0.3-0.6-0.1 1.1-0.8 2.6-0.8 1.6-1.9 3.2c-0.8 1-1.6 1.9-2.5 2.7-0.9 0.7-1.8 1.1-2.7 1.3-1.1 0.1-1.8 0-2.2-0.5q-0.7-0.6-0.7-1.7c-0.1-0.7 0-1.4 0.3-2.2q0.3-1.2 0.7-2.1 0.5-1.1 1.1-2.3 0.5-1.1 1.1-2.3 0.6-1.1 1.1-2.3c0.3-0.8 0.7-1.7 1-2.6q0.5-1.1 0.3-1.6-0.3-0.4-0.6-0.4-0.5 0-1.2 0.6-0.7 0.5-1.5 1.3c-0.5 0.5-1 1.2-1.5 1.8q-0.8 1.1-1.6 2.1c-0.8 1.1-1.6 2.3-2.3 3.3-0.7 1.2-1.4 2.3-2 3.4q-0.5 0.9-1 1.7-0.4 0.9-0.9 1.8c-0.3 0.6-0.6 1.2-0.9 1.8-0.4 0.6-0.7 1.2-1 1.8l-6 0.8c1.7-3.4 3.6-6.7 5.5-10.1zm15.2-16.8c0.7-0.5 1.4-1.2 2.2-1.9q1.1-1 2.3-2.1c0.7-0.8 1.4-1.5 2-2.2q1.1-1.3 1.6-2.4c0.3-0.6 0.6-1.3 0.7-1.8q0.1-0.7-0.1-1.2c-0.1-0.3-0.3-0.6-0.5-0.7-0.3-0.1-0.5-0.2-0.9-0.1q-0.4 0.2-0.8 0.8l-8.1 12.6c0.4-0.2 0.9-0.5 1.6-1z"/><path class="a" d="m65.6 47.4q1.2 0.2 2.8-0.5 1.5-0.6 3-1.8 1.4-1.1 2.7-2.6 1.2-1.4 2-3.2 0.5 0.6 1.2 0.5 0.7-0.1 1.3-0.6c0.4-0.3 0.8-0.7 1.2-1.2 0.4-0.5 0.8-1.1 1.1-1.6 0.3-0.6 0.6-1.1 0.8-1.6q0.3-0.8 0.5-1.3l-0.1-0.1c-0.1 0.1-0.1 0.2-0.3 0.4q-0.2 0.3-0.5 0.7c-0.5 0.5-1 1.1-1.6 1.6q-0.8 0.8-1.4 1.1c-0.5 0.2-0.8 0.1-0.9-0.5q0.3-0.5 0.5-1.1c0.1-0.3 0.2-0.7 0.3-1q0.6-2.1 0.5-3.5 0-1.4-0.6-1.5c-0.6 0-1.1 0.3-1.5 0.8q-0.7 1-1.1 2.2-0.6 1.5-0.6 3-0.1 1.7 0.4 2.7-1.6 1.5-2.9 2.1c-0.9 0.5-1.6 0.7-2.3 0.7q-0.9 0.1-1.5-0.5-0.6-0.5-0.7-1.5c-0.1-0.7-0.1-1.5 0.2-2.5 0.2-0.9 0.6-2.1 1.3-3.3q0.8-1.8 2.2-3.5 1.4-1.6 3.2-3.1c1-0.7 1.8-0.9 2.5-0.6q0.5 0.2 0.7 0.8c0.1 0.4 0.2 0.8 0.1 1.4q1.2-0.7 1.3-1.7 0.2-0.9-0.3-1.6c-0.2-0.3-0.5-0.5-0.8-0.7q-0.5-0.3-1.1-0.2c-1 0.1-2.1 0.5-3.2 1q-1.6 0.9-3.2 2.2-1.7 1.4-3.2 3.1-1.5 1.7-2.6 3.6c-0.4 0.5-0.7 1.2-1.1 1.9q-0.5 1.2-0.9 2.5c-0.3 0.8-0.5 1.7-0.7 2.6q-0.2 1.3-0.1 2.5c0 1.3 0.4 2.3 1.1 2.9 0.7 0.6 1.4 0.9 2.3 1z"/><path fill-rule="evenodd" class="a" d="m84.3 28.4c0.1-0.5 0.2-0.9 0.2-1.3-0.1-0.5-0.2-0.9-0.4-1.3-0.2-0.3-0.5-0.8-0.9-1.3q1.5-1.1 2.6-1.5 1-0.5 1.8-0.4 1 0.2 1.4 1.2 0.3 1 0.2 2.5 0.6-0.7 1.5-1.6 0.9-0.9 1.9-1.7c0.7-0.5 1.4-0.9 2.1-1.2 0.7-0.3 1.4-0.4 2.1-0.3q1.1 0.3 1.7 1.1 0.5 0.9 0.7 2 0.2 1.2-0.1 2.5-0.2 1.3-0.8 2.3-0.6 1.2-1.4 1.9c-0.6 0.5-1.2 0.7-2 0.7-0.3 0-0.6 0-0.9-0.1q-0.5-0.1-0.8-0.5c-0.2-0.3-0.4-0.6-0.5-1q0-0.6 0.2-1.7 0.7 0.3 1.4 0.2c0.5 0 0.9-0.2 1.3-0.4 0.4-0.2 0.7-0.5 1-0.9 0.2-0.3 0.4-0.7 0.3-1.1q-0.1-1.2-0.6-1.7-0.4-0.5-1.1-0.5-0.8 0.1-1.5 0.6c-0.5 0.3-1 0.6-1.5 1-0.6 0.4-1 0.9-1.4 1.2q-0.6 0.7-0.9 1-1.3 1.5-2 3l-6.7 14.2-5.6 0.7 8.1-16.1q0.4-0.8 0.6-1.5zm-1.1-3.9l-0.1 0.1 0.1-0.1z"/><path fill-rule="evenodd" class="a" d="m102.3 26.1c0.1-0.4 0.2-0.9 0.2-1.3-0.1-0.4-0.2-0.8-0.4-1.2-0.2-0.4-0.5-0.8-0.9-1.3q1.5-1.1 2.6-1.6 1-0.4 1.8-0.3 1 0.2 1.3 1.2 0.4 1 0.3 2.4 0.6-0.6 1.5-1.5 0.9-0.9 1.9-1.7c0.7-0.5 1.4-0.9 2.1-1.2 0.7-0.3 1.4-0.4 2.1-0.3q1.1 0.2 1.7 1.1 0.5 0.9 0.7 2 0.2 1.2-0.1 2.5-0.2 1.2-0.8 2.3-0.6 1.1-1.4 1.9c-0.6 0.5-1.2 0.7-2 0.7-0.3 0-0.6 0-0.9-0.1q-0.5-0.2-0.8-0.6c-0.2-0.2-0.4-0.5-0.5-0.9q0-0.7 0.2-1.7 0.7 0.3 1.4 0.2c0.5-0.1 0.9-0.2 1.3-0.4 0.4-0.3 0.7-0.5 1-0.9 0.2-0.3 0.4-0.7 0.3-1.1q-0.1-1.2-0.6-1.7-0.4-0.5-1.1-0.5-0.8 0.1-1.5 0.6c-0.5 0.3-1 0.6-1.5 1-0.6 0.4-1 0.8-1.4 1.2q-0.6 0.7-0.9 1-1.3 1.5-2 2.9l-6.7 14.3-5.6 0.7 8.1-16.1q0.4-0.8 0.6-1.6zm-1.1-3.8l-0.1 0.1 0.1-0.1z"/><path fill-rule="evenodd" class="a" d="m125.7 38.6q-1-0.9-1.1-2.3-0.5 0.9-1.4 1.6-0.8 0.7-1.8 1.3c-1.4 0.9-2.9 1.3-4.3 1.5q-1.5 0.2-2.2-0.7-0.8-0.8-1-2.2c-0.2-0.8-0.2-1.7-0.1-2.8 0.2-1 0.4-1.9 0.8-2.7q0.6-1.6 1.6-3.4 0.9-1.6 2.1-3.3c0.6-0.9 1.3-1.7 2-2.6q1-1.2 2-2.2c0.7-0.7 1.3-1.2 2-1.7 0.6-0.5 1.3-0.9 1.8-1.1 0.7-0.2 1.5-0.4 2.1-0.5q1.1 0 1.9 0.4 0.8 0.4 1.3 1.1c0.4 0.5 0.6 1.2 0.7 2l2.2-4.1 5.8-0.7-7.5 14.4c-0.5 0.9-0.7 1.6-0.8 2q-0.1 0.7 0.2 0.7 0.4 0.1 1-0.2c0.7-0.5 1.6-1.2 2.7-2.2q0.7-0.7 1.3-1.3 0.6-0.6 1.1-1.1 0.2-0.3 0.4-0.4c0.1-0.1 0.2-0.2 0.3-0.3-0.5 1.1-1.1 2.3-1.9 3.6-0.7 1.2-1.5 2.5-2.4 3.6-1 1.1-2 2.1-3.1 2.9q-1.7 1.3-3.4 1.5l0.2-0.1q-1.6 0.2-2.5-0.7zm-3.1-3.7q1-0.3 1.9-1.2 0.8-0.8 1.5-1.8c0.4-0.6 0.8-1.2 1.1-1.7l3.5-6.5c0.1-0.6 0.1-1.1 0.1-1.6q0.1-0.7-0.1-1.3-0.2-0.5-0.5-0.8-0.3-0.3-0.9-0.3c-0.6 0.1-1.2 0.3-1.8 0.6q-0.9 0.5-1.6 1.3c-0.5 0.5-1 1.1-1.5 1.7-0.5 0.7-0.9 1.3-1.3 2q-1.5 2.2-2.3 3.9c-0.5 1.1-0.8 2.1-1 2.8q-0.2 1.2 0.1 1.9 0.2 0.7 0.8 1c0.7 0.3 1.3 0.3 2 0z"/><path fill-rule="evenodd" class="b" d="m13.8 53.1q-1.9-0.7-3-2c-0.8-0.9-1.3-1.9-1.5-3.1-0.3-1.1-0.4-2.3-0.3-3.6 0.1-1.2 0.3-2.4 0.7-3.7q0.7-1.8 1.7-3.3c0.7-1 1.5-1.8 2.4-2.5q1.4-1 3-1.2-1.1 3.1-0.5 5c0.4 1.4 1.3 2.1 2.6 2.1q1.2 0.1 2.7-0.7 1.4-0.7 3.2-2.6 1.1-1.1 2.2-2.4c0.8-0.9 1.5-1.8 2.1-2.7q0.5-0.6 1-1.2c0.3-0.3 0.5-0.7 0.8-1.1l1.3-1.8q-1.9-0.9-3.6-1.6c-1.1-0.4-2.1-0.6-3-0.6q-0.6 0-1.2 0.2c-0.4 0.1-0.8 0.3-1 0.5q-0.4 0.5-0.4 1.3c0 0.5 0.1 1 0.4 1.8-0.7 0.1-1.3 0.1-1.7 0q-0.7-0.3-1.1-0.8c-0.5-0.7-0.6-1.6-0.2-2.7 0.3-0.8 0.9-1.6 1.7-2.2 0.7-0.7 1.9-1.2 3.3-1.4 0.6 0 1.2 0 1.9 0.2q0.9 0.3 2 0.8 1 0.5 2.1 1.2c0.6 0.5 1.4 1 2.1 1.5l0.4-0.6c0.2-0.2 0.3-0.3 0.5-0.5 1.1-1.3 2.2-2.6 3.5-3.9q1.9-2 3.9-3.8c1.4-1.2 2.8-2.3 4.2-3.3 1.4-1 2.9-1.9 4.5-2.7q-1.8 0.4-3.5 0.2c-1.2-0.1-2.3-0.2-3.4-0.3-1.1-0.1-2-0.1-3-0.2q-1.4 0-2.4 0.4c-0.5 0.2-1 0.5-1.4 1.1q-0.8 0.7-1 1.8c-0.2 0.8-0.2 1.7 0 2.6q0.2 1.3 1.4 2.8-2.1 0.7-3.7 0.3-1.6-0.4-2.5-1.4c-0.7-0.7-1.1-1.5-1.3-2.4-0.2-1-0.1-1.9 0.3-2.9q0.5-1.4 1.9-2.6c0.9-0.8 2.1-1.4 3.7-1.7 0.6-0.2 1.3-0.3 2-0.3 0.7 0 1.4 0 2 0 0.7 0.1 1.3 0.2 1.8 0.3q0.9 0.1 1.4 0.2 2.1 0.6 4.2 0.9c1.3 0.3 2.7 0.3 4 0.3 0.3 0 0.7-0.1 1.3-0.3q0.7-0.1 1.4-0.3 0.8-0.2 1.5-0.2c0.4-0.1 0.7-0.1 0.9 0l0.2 0.2c0.2 0.2 0.5 0.5 0.6 0.9q0.2 0.6 0.1 2-0.7-0.4-1.7 0.3-1.1 0.7-2.2 2.1c-0.8 1-1.6 2.1-2.4 3.3q-1.3 2-2.4 4.1-1.2 2.1-2.2 4.1-1.1 2.2-1.8 3.8 0.4 0 0.5-0.1 1.6-0.4 3.1-1.9c-0.2 1.1-0.6 2.1-1.5 2.8-0.8 0.8-1.8 1.1-2.9 1.2-0.1 0.1-0.1 0.3-0.2 0.4l-0.1 0.4q-0.1 0.2-0.1 0.3c-0.1 0.1-0.1 0.3-0.1 0.4q-0.5 1.4-0.8 2.9c-0.2 1.1-0.3 2.1-0.4 2.9q0 2.7 1.2 4.1 1.3 1.4 3.9 1.9-1.6 2.2-3.7 3.4c-1.5 0.8-2.9 1.3-4.3 1.3q-1.4 0.1-2.4-0.3-1.1-0.3-1.9-1.3-0.8-0.8-1.1-2.1-0.2-1.3 0.1-3.2c0.3-1.7 0.9-3.6 1.8-5.7q0.7-1.6 1.6-3.2c0.6-1.1 1.2-2.2 1.8-3.3-0.6-0.2-1.2-0.5-1.8-0.9l-1.9-0.9c-0.6 1.2-1.2 2.3-1.8 3.5q-1 1.7-1.8 3.6-0.9 1.8-1.8 3.7-0.9 1.9-1.9 3.8-1.1 1.9-2 3.5-1.1 1.6-2.1 2.8-1.1 1.2-2.3 1.9c-0.9 0.5-1.8 0.8-3 0.9-1.8 0.1-3.4 0-4.6-0.5zm29.4-28q1.7-2.4 3.4-4.7c1.2-1.5 2.2-2.9 3.2-4.1q1.5-1.9 2.7-3.3-1.8 0.9-3.5 2c-1.2 0.8-2.3 1.6-3.4 2.4-1 0.8-2.1 1.7-3 2.6q-1.4 1.3-2.5 2.6-1.1 1.4-2.1 2.8-1 1.5-1.9 3c0.6 0.4 1.2 0.8 1.8 1.1q0.9 0.5 1.9 0.8v0.1q1.7-2.7 3.4-5.3z"/><path fill-rule="evenodd" class="b" d="m47.2 39.8c2-3.4 3.9-6.8 5.8-10.1 2-3.4 3.9-6.6 5.8-9.7q2.8-4.7 5.4-8.8 0.8-1.2 1.8-2c0.7-0.5 1.4-0.8 2.1-1q1-0.3 1.9-0.2c0.6 0.1 1.2 0.4 1.6 0.6 0.7 0.5 1 1.1 1.2 1.8 0.1 0.6 0.1 1.4-0.1 2.2q-0.4 1.2-1.1 2.5-0.8 1.4-1.9 2.7-1.2 1.5-2.7 2.9-1.5 1.5-2.9 2.7-0.7 0.6-1.4 1.1-0.7 0.6-1.3 1.1c-0.8 0.7-1.5 1.3-1.9 1.8l-2.9 5c0.7-0.9 1.5-1.8 2.3-2.8 0.8-0.9 1.7-1.8 2.5-2.6q1.3-1.1 2.4-1.7c0.8-0.5 1.5-0.5 2.2-0.4 0.7 0.3 1.2 0.6 1.5 1.2 0.2 0.5 0.3 1.2 0.2 1.9-0.1 0.7-0.3 1.6-0.6 2.4-0.3 0.9-0.7 1.7-1 2.4-0.2 0.5-0.4 0.8-0.6 1.2q-0.3 0.5-0.5 1-0.7 1.1-1 1.8-0.3 0.7-0.6 1.5-0.3 0.9-0.4 1.5-0.1 0.6 0.1 1c0.1 0.3 0.3 0.4 0.7 0.4q0.5 0 1.1-0.4 0.5-0.3 1-0.8c0.3-0.3 0.6-0.7 0.9-1.1 0.1-0.2 0.2-0.4 0.3-0.6q0.2-0.3 0.4-0.6-0.2 1.1-0.9 2.7-0.8 1.6-1.9 3.1c-0.8 1-1.6 1.9-2.5 2.7-0.9 0.8-1.8 1.2-2.7 1.3-1.1 0.1-1.8 0-2.2-0.5q-0.7-0.6-0.7-1.7c0-0.6 0-1.4 0.3-2.2q0.3-1.2 0.7-2 0.5-1.2 1.1-2.3 0.5-1.2 1.1-2.4 0.6-1.1 1.1-2.3c0.3-0.8 0.7-1.7 1-2.6q0.5-1.1 0.3-1.5-0.3-0.5-0.6-0.5-0.5 0.1-1.2 0.6-0.7 0.5-1.4 1.3c-0.6 0.6-1.1 1.2-1.6 1.9q-0.8 1-1.6 2c-0.8 1.2-1.6 2.3-2.3 3.4-0.7 1.1-1.4 2.2-2 3.4q-0.5 0.8-0.9 1.7-0.5 0.8-0.9 1.7c-0.4 0.6-0.7 1.2-1 1.8-0.3 0.7-0.6 1.3-0.9 1.8l-6.1 0.8c1.8-3.3 3.6-6.7 5.5-10.1zm15.2-16.8c0.7-0.5 1.4-1.2 2.2-1.8q1.1-1 2.3-2.2c0.8-0.8 1.5-1.5 2-2.2q1.1-1.3 1.6-2.3c0.3-0.7 0.6-1.3 0.7-1.8q0.1-0.8-0.1-1.3c-0.1-0.3-0.3-0.5-0.5-0.7-0.3-0.1-0.5-0.1-0.8 0q-0.5 0.1-0.9 0.7l-8.1 12.7c0.4-0.3 0.9-0.6 1.6-1.1z"/><path class="b" d="m66.5 46.7q1.3 0.2 2.8-0.4 1.5-0.7 3-1.8 1.4-1.1 2.7-2.7 1.2-1.4 2-3.1 0.6 0.5 1.2 0.4 0.7 0 1.3-0.5c0.5-0.3 0.9-0.7 1.3-1.3 0.3-0.5 0.7-1 1.1-1.6 0.3-0.6 0.5-1.1 0.8-1.6q0.3-0.8 0.4-1.3l-0.1-0.1c0 0.1-0.1 0.2-0.3 0.4q-0.2 0.3-0.5 0.7c-0.5 0.6-1 1.1-1.6 1.6q-0.7 0.8-1.4 1.1c-0.5 0.2-0.7 0.1-0.9-0.5q0.3-0.5 0.5-1c0.1-0.4 0.2-0.7 0.3-1.1q0.6-2 0.6-3.4-0.1-1.5-0.7-1.5c-0.5-0.1-1 0.2-1.5 0.8q-0.7 0.9-1.1 2.1-0.6 1.5-0.6 3.1-0.1 1.6 0.4 2.6-1.6 1.5-2.9 2.1c-0.8 0.5-1.6 0.7-2.3 0.7q-0.9 0.1-1.5-0.4-0.6-0.6-0.7-1.6c-0.1-0.7-0.1-1.5 0.2-2.5 0.2-0.9 0.7-2.1 1.3-3.3q0.8-1.7 2.3-3.4 1.3-1.7 3.2-3.2c0.9-0.7 1.7-0.9 2.4-0.6q0.5 0.2 0.7 0.8c0.1 0.4 0.2 0.9 0.1 1.5q1.2-0.8 1.4-1.8 0.1-0.9-0.4-1.6c-0.2-0.3-0.5-0.5-0.8-0.7q-0.5-0.2-1-0.2c-1.1 0.2-2.2 0.5-3.3 1q-1.6 0.9-3.2 2.2-1.6 1.4-3.1 3.1-1.5 1.7-2.7 3.6c-0.3 0.5-0.7 1.2-1 2q-0.6 1.2-1 2.4c-0.3 0.9-0.5 1.8-0.7 2.6q-0.2 1.4-0.1 2.5c0.1 1.3 0.4 2.3 1.1 2.9 0.7 0.6 1.4 1 2.3 1z"/><path fill-rule="evenodd" class="b" d="m85.2 27.7c0.1-0.4 0.2-0.9 0.2-1.3-0.1-0.4-0.2-0.8-0.4-1.2-0.2-0.4-0.5-0.9-0.8-1.3q1.4-1.2 2.5-1.6 1.1-0.5 1.8-0.4 1 0.2 1.4 1.2 0.4 1 0.2 2.5 0.6-0.7 1.5-1.6 0.9-0.9 1.9-1.7c0.7-0.5 1.4-0.9 2.1-1.2 0.7-0.3 1.5-0.4 2.1-0.3q1.1 0.3 1.7 1.2 0.5 0.9 0.7 2 0.2 1.1 0 2.4-0.3 1.3-0.8 2.4-0.6 1.1-1.5 1.8c-0.6 0.5-1.2 0.7-2 0.7-0.3 0.1-0.6 0-0.9-0.1q-0.5-0.1-0.8-0.5c-0.2-0.2-0.4-0.6-0.4-1q-0.1-0.6 0.1-1.6 0.7 0.2 1.4 0.2c0.5-0.1 1-0.3 1.4-0.5 0.4-0.2 0.7-0.5 0.9-0.8 0.3-0.4 0.4-0.7 0.3-1.2q-0.1-1.2-0.6-1.7-0.4-0.4-1.1-0.4-0.7 0.1-1.5 0.5c-0.5 0.3-1 0.7-1.5 1.1-0.5 0.4-1 0.8-1.4 1.2q-0.6 0.6-0.9 1-1.3 1.4-2 2.9l-6.6 14.2-5.7 0.7 8.2-16.1q0.3-0.8 0.5-1.5zm-1-3.8l-0.2 0.1 0.1-0.2z"/><path fill-rule="evenodd" class="c" d="m103.2 25.5c0.1-0.5 0.2-0.9 0.2-1.3-0.1-0.5-0.2-0.9-0.4-1.3-0.2-0.3-0.5-0.8-0.8-1.3q1.4-1.1 2.5-1.5 1.1-0.5 1.8-0.4 1 0.2 1.4 1.2 0.4 1 0.2 2.5 0.6-0.7 1.5-1.6 0.9-0.9 1.9-1.7c0.7-0.5 1.4-0.9 2.1-1.2 0.7-0.3 1.5-0.4 2.1-0.3q1.1 0.3 1.7 1.2 0.5 0.8 0.7 1.9 0.2 1.2 0 2.5-0.3 1.3-0.8 2.3-0.6 1.2-1.5 1.9c-0.6 0.5-1.2 0.7-2 0.7-0.3 0-0.6 0-0.9-0.1q-0.5-0.1-0.8-0.5c-0.2-0.2-0.4-0.6-0.4-1q-0.1-0.6 0.1-1.7 0.7 0.3 1.4 0.2c0.5 0 1-0.2 1.4-0.4 0.4-0.2 0.7-0.5 0.9-0.8 0.3-0.4 0.4-0.8 0.3-1.2q-0.1-1.2-0.6-1.7-0.4-0.5-1.1-0.4-0.7 0-1.5 0.5c-0.5 0.3-1 0.6-1.5 1-0.5 0.4-1 0.9-1.4 1.3q-0.6 0.6-0.9 0.9-1.3 1.5-2 3l-6.6 14.2-5.7 0.7 8.2-16.1q0.3-0.8 0.5-1.5zm-1-3.9l-0.2 0.1 0.1-0.1z"/><path fill-rule="evenodd" class="b" d="m103.2 25.5c0.1-0.5 0.2-0.9 0.2-1.3-0.1-0.5-0.2-0.9-0.4-1.3-0.2-0.3-0.5-0.8-0.8-1.3q1.4-1.1 2.5-1.5 1.1-0.5 1.8-0.4 1 0.2 1.4 1.2 0.4 1 0.2 2.5 0.6-0.7 1.5-1.6 0.9-0.9 1.9-1.7c0.7-0.5 1.4-0.9 2.1-1.2 0.7-0.3 1.5-0.4 2.1-0.3q1.1 0.3 1.7 1.2 0.5 0.8 0.7 1.9 0.2 1.2 0 2.5-0.3 1.3-0.8 2.3-0.6 1.2-1.5 1.9c-0.6 0.5-1.2 0.7-2 0.7-0.3 0-0.6 0-0.9-0.1q-0.5-0.1-0.8-0.5c-0.2-0.2-0.4-0.6-0.4-1q-0.1-0.6 0.1-1.7 0.7 0.3 1.4 0.2c0.5 0 1-0.2 1.4-0.4 0.4-0.2 0.7-0.5 0.9-0.8 0.3-0.4 0.4-0.8 0.3-1.2q-0.1-1.2-0.6-1.7-0.4-0.5-1.1-0.4-0.7 0-1.5 0.5c-0.5 0.3-1 0.6-1.5 1-0.5 0.4-1 0.9-1.4 1.3q-0.6 0.6-0.9 0.9-1.3 1.5-2 3l-6.6 14.2-5.7 0.7 8.2-16.1q0.3-0.8 0.5-1.5zm-1-3.9l-0.2 0.1 0.1-0.1z"/><path fill-rule="evenodd" class="c" d="m126.6 37.9q-1-0.9-1.1-2.3-0.5 0.9-1.3 1.6-0.9 0.8-1.9 1.3c-1.4 0.9-2.8 1.4-4.2 1.5q-1.6 0.2-2.3-0.6-0.7-0.9-1-2.2c-0.2-0.9-0.2-1.8 0-2.8 0.1-1 0.4-2 0.7-2.7q0.6-1.7 1.6-3.4 0.9-1.7 2.1-3.3c0.6-1 1.3-1.8 2-2.6q1-1.3 2.1-2.3c0.6-0.7 1.3-1.2 1.9-1.7 0.7-0.5 1.3-0.8 1.8-1.1 0.8-0.2 1.5-0.4 2.2-0.4q1 0 1.8 0.3 0.8 0.4 1.4 1.1c0.3 0.6 0.5 1.2 0.6 2l2.2-4.1 5.8-0.7-7.5 14.4c-0.4 0.9-0.7 1.6-0.8 2q-0.1 0.7 0.3 0.8 0.3 0.1 0.9-0.3c0.8-0.4 1.6-1.2 2.7-2.2q0.7-0.6 1.3-1.3 0.7-0.6 1.1-1.1 0.3-0.2 0.4-0.4c0.1-0.1 0.2-0.1 0.3-0.2-0.5 1-1.1 2.2-1.8 3.5-0.8 1.3-1.6 2.5-2.5 3.6-1 1.2-2 2.2-3.1 3q-1.6 1.2-3.4 1.4l0.2-0.1q-1.6 0.2-2.5-0.7zm-3.1-3.6q1-0.4 1.9-1.3 0.8-0.8 1.5-1.8c0.4-0.6 0.8-1.2 1.1-1.7l3.6-6.5h-0.1c0.1-0.5 0.1-1 0.2-1.5q0-0.8-0.2-1.3-0.2-0.6-0.4-0.9-0.4-0.3-1-0.2c-0.6 0-1.2 0.2-1.8 0.5q-0.8 0.5-1.6 1.3c-0.5 0.6-1 1.1-1.5 1.8-0.5 0.6-0.9 1.3-1.3 1.9q-1.5 2.2-2.3 3.9c-0.5 1.2-0.8 2.1-0.9 2.8q-0.3 1.3 0 2 0.3 0.7 0.9 0.9c0.6 0.3 1.3 0.3 1.9 0.1z"/><path fill-rule="evenodd" class="b" d="m126.6 37.9q-1-0.9-1.1-2.3-0.5 0.9-1.3 1.6-0.9 0.8-1.9 1.3c-1.4 0.9-2.8 1.4-4.2 1.5q-1.6 0.2-2.3-0.6-0.7-0.9-1-2.2c-0.2-0.9-0.2-1.8 0-2.8 0.1-1 0.4-2 0.7-2.7q0.6-1.7 1.6-3.4 0.9-1.7 2.1-3.3c0.6-1 1.3-1.8 2-2.6q1-1.3 2.1-2.3c0.6-0.7 1.3-1.2 1.9-1.7 0.7-0.5 1.3-0.8 1.8-1.1 0.8-0.2 1.5-0.4 2.2-0.4q1 0 1.8 0.3 0.8 0.4 1.4 1.1c0.3 0.6 0.5 1.2 0.6 2l2.2-4.1 5.8-0.7-7.5 14.4c-0.4 0.9-0.7 1.6-0.8 2q-0.1 0.7 0.3 0.8 0.3 0.1 0.9-0.3c0.8-0.4 1.6-1.2 2.7-2.2q0.7-0.6 1.3-1.3 0.7-0.6 1.1-1.1 0.3-0.2 0.4-0.4c0.1-0.1 0.2-0.1 0.3-0.2-0.5 1-1.1 2.2-1.8 3.5-0.8 1.3-1.6 2.5-2.5 3.6-1 1.2-2 2.2-3.1 3q-1.6 1.2-3.4 1.4l0.2-0.1q-1.6 0.2-2.5-0.7zm-3.1-3.6q1-0.4 1.9-1.3 0.8-0.8 1.5-1.8c0.4-0.6 0.8-1.2 1.1-1.7l3.6-6.5h-0.1c0.1-0.5 0.1-1 0.2-1.5q0-0.8-0.2-1.3-0.2-0.6-0.4-0.9-0.4-0.3-1-0.2c-0.6 0-1.2 0.2-1.8 0.5q-0.8 0.5-1.6 1.3c-0.5 0.6-1 1.1-1.5 1.8-0.5 0.6-0.9 1.3-1.3 1.9q-1.5 2.2-2.3 3.9c-0.5 1.2-0.8 2.1-0.9 2.8q-0.3 1.3 0 2 0.3 0.7 0.9 0.9c0.6 0.3 1.3 0.3 1.9 0.1z"/><path fill-rule="evenodd" class="d" d="m94.2 74.6q-1-0.4-1.7-1.2-0.7-0.7-1-2-0.3-1.2 0-2.9c0.2-1 0.5-2.2 1.1-3.6q0.7-1.9 1.8-4.1c0.7-1.4 1.5-3 2.4-4.5 0.9-1.5 1.9-3.1 2.9-4.7q-2.5 2.9-4.9 5.8-2.5 2.9-5 6.5l-1 1.3v-0.1c-0.3 0.3-0.5 0.6-0.7 0.9l-0.6 0.7-1.2 1.5q-1.2 1.5-2.7 3.4c-0.3-0.7-0.6-1.6-0.7-2.7-0.2-1.2-0.2-2.6-0.1-4.1q0-2.2 0.4-4.7 0.3-2.5 0.9-5 0.5-2.4 1.1-4.7 0.7-2.3 1.5-4.1c-1.3 1.8-2.6 3.9-3.8 6.2q-1.9 3.4-3.7 6.9-1.9 3.5-3.8 6.9-1.8 3.3-3.7 6c-1.3 1.8-2.6 3.3-3.9 4.4-1.2 1.2-2.5 1.8-3.8 2-1.7 0.2-3.1 0.1-4.3-0.3q-1.9-0.7-3.1-1.9c-0.9-0.9-1.5-1.9-1.9-3.1-0.4-1.2-0.6-2.5-0.6-3.8 0.1-1.2 0.3-2.3 0.7-3.5q0.6-1.7 1.6-3.2c0.6-1 1.3-1.9 2.2-2.7 0.8-0.9 1.7-1.6 2.7-2.3-0.1 0.8 0 1.7 0.1 2.6q0.2 1.3 0.7 2.5 0.4 1.2 1.3 1.9c0.6 0.6 1.3 0.8 2.2 0.8q2 0 4-1.5 2-1.5 4.1-3.9 1-1.1 2-2.4 1.1-1.3 2.1-2.8c1.4-1.9 2.8-3.7 4.2-5.5q2-2.7 4.1-4.9c1.3-1.5 2.7-2.5 4.1-3.2q-3.6-0.1-6.7-0.1-3.1 0-5.6 0.6c-1.4 0.3-2.5 0.8-3.5 1.4q-1.4 0.8-2.1 2.1-1.3 2.5 0.2 6.2c-0.9 0.3-1.7 0.2-2.4-0.1-0.8-0.3-1.4-0.8-1.8-1.5q-0.8-1-1.1-2.3c-0.2-0.9-0.1-1.8 0.1-2.7q0.5-1.9 2.4-3.5c1.3-1 3.2-1.7 5.8-2 2-0.3 3.9-0.3 5.8-0.2q2.8 0.2 5.7 0.4 2.9 0.4 6.2 0.5 3.3 0.2 7.5-0.3 3.6-0.4 6.4-1.8c1.9-0.9 3.5-2 4.7-3.1l0.2 0.1c0.4 0 0.8 0.1 1.1 0.4 0.2 0.3 0.4 0.6 0.5 0.9q0.2 0.6 0 1.1c0 0.4-0.2 0.7-0.4 1q-1.6 1.4-3.1 3.3c-0.9 1.3-1.9 2.6-2.8 4-0.9 1.4-1.8 2.8-2.6 4.2-0.7 1.5-1.5 2.8-2.1 4q-1 2-1.6 3.5c-0.5 1-0.8 1.8-0.9 2.4q-0.7 2.2-0.9 4.2c-0.2 1.4-0.1 2.5 0.4 3.5 0.3 0.7 0.7 1.3 1.4 1.8 0.6 0.5 1.5 0.8 2.7 1q-1.3 2.1-3.3 3.2-2 1.1-4 1.1-1.2 0.1-2.2-0.2zm3.1-21.8q2.2-2.6 4.5-5.4c0.8-0.9 1.5-1.9 2.3-2.8 0.8-0.9 1.6-1.8 2.4-2.8h0.1q0.5-0.8 1.1-1.4c0.3-0.4 0.7-0.8 1-1.2q-2.1 1-4.4 1.5c-1.6 0.3-3.1 0.5-4.8 0.6-1.3 0.2-2.6 0.2-3.9 0.2-1.3 0-2.5 0-3.8 0l-1 4.6q-0.6 2.8-1.1 5.7-0.4 3-0.6 5.8-0.1 1.5 0 2.7 0.1 1.3 0.3 2.2l3.8-4.6c1.3-1.6 2.6-3.3 4.1-5.1z"/><path fill-rule="evenodd" class="d" d="m110.3 71.9q-1-0.9-1-2.3-0.6 0.9-1.4 1.6-0.9 0.7-1.9 1.3c-1.4 0.9-2.8 1.3-4.2 1.5q-1.6 0.2-2.3-0.7-0.7-0.8-1-2.2c-0.1-0.8-0.1-1.7 0-2.8 0.1-1 0.4-1.9 0.7-2.7q0.7-1.6 1.6-3.4 1-1.6 2.1-3.3c0.7-0.9 1.3-1.7 2-2.6q1.1-1.2 2.1-2.2c0.6-0.7 1.3-1.2 1.9-1.7 0.7-0.5 1.3-0.9 1.9-1.1 0.7-0.2 1.4-0.4 2.1-0.5q1 0 1.9 0.4 0.8 0.4 1.3 1.1c0.3 0.5 0.5 1.2 0.6 2l2.2-4.1 5.8-0.7-7.4 14.4c-0.5 0.9-0.8 1.6-0.8 2q-0.1 0.7 0.2 0.7 0.3 0.1 0.9-0.2c0.8-0.5 1.7-1.2 2.7-2.2q0.7-0.7 1.4-1.3 0.6-0.6 1.1-1.1 0.2-0.3 0.3-0.4c0.2-0.1 0.2-0.2 0.3-0.3-0.5 1.1-1.1 2.3-1.8 3.6-0.8 1.2-1.6 2.5-2.5 3.6-0.9 1.1-2 2.1-3.1 2.9q-1.6 1.3-3.3 1.5l0.1-0.1q-1.6 0.2-2.5-0.7zm-3-3.7q0.9-0.3 1.8-1.2 0.9-0.8 1.6-1.8c0.4-0.6 0.8-1.2 1-1.7l3.6-6.5h-0.1c0.1-0.6 0.2-1.1 0.2-1.6q0-0.7-0.1-1.3-0.2-0.5-0.5-0.8-0.4-0.3-0.9-0.3c-0.7 0.1-1.3 0.3-1.8 0.6q-0.9 0.5-1.6 1.3c-0.6 0.5-1.1 1.1-1.5 1.7-0.5 0.7-1 1.3-1.4 2q-1.5 2.2-2.3 3.9c-0.5 1.1-0.8 2.1-0.9 2.8q-0.2 1.2 0 1.9 0.3 0.7 0.9 1c0.6 0.3 1.3 0.3 2 0z"/><path class="d" d="m129.4 70.7q1.3 0.1 2.8-0.6c1-0.4 1.9-1.1 2.8-1.9 0.9-0.8 1.7-1.8 2.5-2.9q1.1-1.8 1.6-4.1c-0.1 0.2-0.3 0.4-0.6 0.6-0.2 0.2-0.4 0.3-0.7 0.5-0.5 0.4-1.1 0.8-1.7 1.2q-0.9 0.5-1.7 0.8c-0.6 0.2-1.2 0.3-1.6 0.2-0.5 0-0.8-0.3-1-0.8q-0.4-0.6-0.4-1.8c0.1-0.8 0.1-1.5 0.3-2.2l0.2-0.2c0.3-0.2 0.6-0.5 1.1-0.8q0.5-0.5 1.3-1.1 0.8-0.5 1.6-1.1c0.5-0.4 1-0.8 1.5-1.3 1.1-0.8 2-1.6 2.9-2.5 0.9-0.8 1.5-1.5 2-2.1q0.5-0.7 0.3-1.6-0.2-0.8-1-1.6-0.2 0.9-0.4 1.5-0.3 0.6-0.6 1-0.3 0.6-0.7 1.1c-0.3 0.4-0.6 0.7-1 1.1q-1.5 1.8-3.3 3.5c-1.2 1.2-2.4 2.2-3.7 3.1q0.2-0.7 0.5-1.5 0.2-0.7 0.4-1.6 0.5-1.7 0.9-3.4 0.2-1.3-0.3-2.2-0.5-0.9-1.5-1.2c-1.1-0.2-2.4-0.1-3.6 0.5q0.4 0.3 0.7 0.7 0.2 0.3 0.3 0.8 0 0.5-0.1 1.1c-0.1 0.5-0.2 1-0.3 1.6-0.3 0.9-0.5 1.7-0.8 2.6-0.3 0.9-0.6 1.7-0.9 2.6q-0.5 1.3-0.9 2.6c-0.3 0.9-0.6 1.7-0.7 2.5q-1.4 1.2-2.7 2.4-1.3 1.3-2.5 2.5c-0.4 0.4-0.7 0.7-0.8 1.2q-0.3 0.7-0.2 1.2 0 0.5 0.7 0.6c0.4 0.1 0.7 0 0.9-0.2q0.4-0.3 0.4-0.6v-0.7q0.1-0.8 1.3-2.2 1.1-1.4 2.7-2.9-0.1 1.1 0 2.1c0.1 0.6 0.3 1.2 0.6 1.7q0.5 0.9 1.3 1.3c0.6 0.3 1.3 0.5 2.1 0.5z"/><path fill-rule="evenodd" class="e" d="m95.1 73.9q-1-0.4-1.7-1.2-0.7-0.7-1-1.9-0.2-1.3 0.1-3c0.1-1 0.5-2.2 1-3.5q0.7-2 1.8-4.2c0.7-1.4 1.6-2.9 2.5-4.5 0.9-1.5 1.8-3.1 2.8-4.6q-2.5 2.8-4.9 5.7-2.4 3-5 6.5v0.1l-1 1.2v-0.1c-0.3 0.3-0.5 0.6-0.7 0.9l-0.6 0.8-1.2 1.5q-1.2 1.4-2.6 3.3c-0.4-0.6-0.7-1.6-0.8-2.7-0.1-1.2-0.1-2.5-0.1-4.1q0.1-2.2 0.4-4.7 0.3-2.4 0.9-5 0.5-2.4 1.2-4.7 0.6-2.3 1.4-4.1c-1.3 1.9-2.5 3.9-3.8 6.2q-1.9 3.4-3.7 6.9-1.9 3.5-3.7 6.9-1.9 3.3-3.8 6c-1.3 1.8-2.6 3.3-3.8 4.5-1.3 1.1-2.6 1.7-3.9 1.9-1.7 0.2-3.1 0.1-4.3-0.3q-1.9-0.6-3.1-1.9c-0.8-0.8-1.5-1.9-1.9-3.1-0.4-1.2-0.6-2.5-0.5-3.8 0-1.2 0.2-2.3 0.6-3.4q0.6-1.7 1.6-3.2c0.6-1 1.4-1.9 2.2-2.8 0.8-0.8 1.7-1.6 2.7-2.3-0.1 0.9 0 1.7 0.1 2.6q0.2 1.4 0.7 2.5 0.5 1.2 1.3 2c0.6 0.5 1.3 0.8 2.2 0.8q2 0 4-1.5 2-1.6 4.1-3.9 1-1.2 2.1-2.5 1-1.3 2.1-2.7c1.3-2 2.7-3.8 4.1-5.6q2-2.6 4.1-4.9c1.4-1.4 2.7-2.5 4.2-3.2q-3.6-0.1-6.8 0-3.1 0-5.6 0.5c-1.3 0.4-2.5 0.8-3.5 1.4q-1.4 0.9-2 2.2-1.4 2.4 0.1 6.2c-0.9 0.2-1.7 0.2-2.4-0.2-0.7-0.3-1.3-0.8-1.8-1.4q-0.8-1-1-2.4c-0.2-0.9-0.2-1.8 0.1-2.7q0.4-1.9 2.4-3.4c1.2-1.1 3.1-1.8 5.7-2.1 2-0.2 4-0.3 5.8-0.2q2.8 0.2 5.7 0.5 2.9 0.3 6.2 0.4 3.3 0.2 7.5-0.3 3.6-0.4 6.4-1.8c1.9-0.9 3.5-1.9 4.7-3.1l0.2 0.1c0.4 0 0.8 0.2 1.1 0.4 0.3 0.3 0.4 0.6 0.6 0.9q0.1 0.6 0 1.1c-0.1 0.4-0.3 0.7-0.5 1q-1.6 1.4-3.1 3.4c-0.9 1.3-1.8 2.5-2.8 3.9-0.9 1.4-1.8 2.8-2.5 4.3-0.8 1.4-1.5 2.7-2.2 4q-1 1.9-1.6 3.4c-0.5 1.1-0.7 1.9-0.9 2.5q-0.6 2.1-0.9 4.1c-0.1 1.4 0 2.6 0.4 3.5 0.3 0.8 0.8 1.3 1.4 1.8 0.7 0.5 1.6 0.8 2.8 1q-1.4 2.1-3.4 3.2-2 1.1-4 1.2-1.2 0.1-2.2-0.3zm3.1-21.8q2.2-2.6 4.5-5.4c0.8-0.9 1.6-1.8 2.4-2.8 0.7-0.9 1.5-1.8 2.3-2.7l0.1-0.1q0.6-0.7 1.1-1.4c0.4-0.4 0.7-0.8 1.1-1.2q-2.2 1-4.5 1.5c-1.5 0.3-3.1 0.5-4.8 0.7-1.3 0.1-2.6 0.2-3.9 0.2-1.2 0-2.5 0-3.8 0l-1 4.6q-0.6 2.7-1.1 5.7-0.4 2.9-0.5 5.8-0.2 1.4-0.1 2.6 0.1 1.3 0.3 2.3l3.8-4.7c1.3-1.6 2.7-3.3 4.1-5.1z"/><path fill-rule="evenodd" class="e" d="m111.2 71.2q-1-0.9-1-2.3-0.5 0.9-1.4 1.6-0.8 0.8-1.8 1.3c-1.4 0.9-2.9 1.4-4.3 1.5q-1.5 0.2-2.3-0.6-0.7-0.9-0.9-2.2c-0.2-0.9-0.2-1.8-0.1-2.8 0.1-1 0.4-2 0.7-2.7q0.7-1.7 1.7-3.4 0.9-1.7 2.1-3.3c0.6-1 1.2-1.8 1.9-2.6q1.1-1.3 2.1-2.3c0.7-0.7 1.3-1.2 2-1.7 0.6-0.5 1.2-0.8 1.8-1.1 0.7-0.2 1.4-0.4 2.1-0.4q1 0 1.9 0.3 0.8 0.4 1.3 1.1c0.4 0.6 0.6 1.2 0.7 2l2.1-4.1 5.8-0.7-7.4 14.4c-0.5 0.9-0.8 1.6-0.8 2q-0.1 0.7 0.2 0.8 0.3 0.1 0.9-0.3c0.8-0.4 1.7-1.2 2.7-2.2q0.8-0.6 1.4-1.3 0.6-0.6 1.1-1.1 0.2-0.2 0.4-0.4c0.1-0.1 0.2-0.2 0.2-0.2-0.4 1-1 2.2-1.8 3.5-0.8 1.3-1.6 2.5-2.5 3.6-0.9 1.2-2 2.2-3 3q-1.7 1.2-3.4 1.4l0.1-0.1q-1.6 0.2-2.5-0.7zm-3-3.6q0.9-0.4 1.8-1.3 0.9-0.8 1.6-1.8c0.4-0.6 0.8-1.2 1.1-1.7l3.5-6.5c0.1-0.5 0.1-1 0.1-1.5q0-0.8-0.1-1.3-0.2-0.6-0.5-0.9-0.3-0.3-0.9-0.2c-0.7 0-1.3 0.2-1.8 0.5q-0.9 0.5-1.6 1.3c-0.5 0.6-1 1.1-1.5 1.8-0.5 0.6-0.9 1.3-1.4 1.9q-1.4 2.2-2.2 3.9c-0.6 1.2-0.9 2.1-1 2.8q-0.2 1.3 0 2 0.3 0.7 0.9 0.9c0.6 0.3 1.3 0.3 2 0.1z"/><path class="e" d="m130.4 71h-0.1q1.3 0.1 2.8-0.6c1-0.4 1.9-1 2.9-1.8 0.9-0.8 1.7-1.8 2.4-3q1.1-1.8 1.7-4c-0.2 0.2-0.4 0.3-0.6 0.5-0.3 0.2-0.5 0.3-0.8 0.6-0.5 0.3-1.1 0.8-1.7 1.1q-0.8 0.5-1.7 0.8c-0.6 0.3-1.1 0.4-1.6 0.3-0.4-0.1-0.8-0.4-1-0.8q-0.4-0.7-0.3-1.9c0-0.8 0.1-1.5 0.2-2.2l0.3-0.2c0.2-0.2 0.6-0.5 1-0.8q0.6-0.4 1.4-1 0.7-0.6 1.5-1.2c0.5-0.4 1-0.8 1.5-1.3 1.1-0.8 2-1.6 2.9-2.4 0.9-0.8 1.6-1.5 2-2.1q0.5-0.8 0.3-1.7-0.2-0.8-1-1.5-0.2 0.8-0.4 1.4-0.2 0.6-0.5 1.1-0.4 0.5-0.8 1c-0.3 0.4-0.6 0.8-0.9 1.1q-1.6 1.8-3.4 3.5c-1.2 1.2-2.4 2.3-3.6 3.2q0.1-0.8 0.4-1.6 0.2-0.7 0.5-1.6 0.4-1.6 0.8-3.4 0.3-1.3-0.2-2.2-0.6-0.9-1.6-1.2c-1.1-0.2-2.4 0-3.6 0.6q0.5 0.3 0.7 0.6 0.2 0.4 0.3 0.8 0 0.5-0.1 1.2c-0.1 0.4-0.2 0.9-0.3 1.5-0.2 0.9-0.5 1.8-0.8 2.6-0.3 0.9-0.6 1.8-0.9 2.6q-0.5 1.3-0.9 2.6c-0.3 0.9-0.6 1.7-0.7 2.6q-1.4 1.1-2.6 2.4-1.3 1.2-2.6 2.4c-0.3 0.4-0.6 0.8-0.8 1.2q-0.3 0.7-0.2 1.2 0 0.5 0.7 0.6c0.4 0.2 0.7 0.1 0.9-0.1q0.4-0.3 0.4-0.7l0.1-0.6q0-0.9 1.2-2.3 1.1-1.4 2.7-2.9-0.1 1.1 0 2.1c0.1 0.6 0.3 1.2 0.7 1.7q0.4 0.9 1.2 1.4c0.6 0.3 1.3 0.4 2.2 0.4z"/></svg>